<svg width="252" height="264" viewBox="0 0 252 264" fill="none" xmlns="http://www.w3.org/2000/svg">
<g clip-path="url(#clip0_1008_94177)">
<mask id="mask0_1008_94177" style="mask-type:luminance" maskUnits="userSpaceOnUse" x="-1" y="6" width="254" height="258">
<path d="M252.391 6.06781H-0.4375V263.932H252.391V6.06781Z" fill="white"/>
</mask>
<g mask="url(#mask0_1008_94177)">
<path d="M58.75 6.06851C26.1136 6.06851 -0.4375 32.6318 -0.4375 65.2829C-0.4375 97.9314 26.1136 124.496 58.75 124.496C91.387 124.496 117.938 97.9314 117.938 65.2829C117.938 32.6318 91.387 6.06851 58.75 6.06851Z" fill="#0B23A9"/>
<path d="M125.719 191.489C104.399 191.489 84.2542 186.088 66.5703 176.606V203.471C66.5703 236.071 92.5899 263.121 125.175 263.436C158.078 263.754 184.947 237.069 184.947 204.226V176.581C167.247 186.087 147.069 191.489 125.719 191.489Z" fill="#0B23A9"/>
<path d="M133.466 65.2895C133.405 106.481 99.9796 139.934 58.6584 140.035C42.7185 140.076 27.7607 135.112 15.5547 126.445C37.1888 165.134 78.4701 191.514 125.673 191.423C194.243 191.477 250.823 135.626 251.966 67.1253L251.804 66.9787C251.871 65.2719 251.788 66.67 251.871 65.2719C251.904 32.598 225.312 5.93101 192.815 6.04477C160.008 6.17432 133.499 32.6152 133.466 65.2895Z" fill="url(#paint0_linear_1008_94177)"/>
</g>
</g>
<defs>
<linearGradient id="paint0_linear_1008_94177" x1="71.1552" y1="189.328" x2="217.708" y2="27.0527" gradientUnits="userSpaceOnUse">
<stop stop-color="#09DBF0"/>
<stop offset="1" stop-color="#0B23A9"/>
</linearGradient>
<clipPath id="clip0_1008_94177">
<rect width="252" height="264" fill="white"/>
</clipPath>
</defs>
</svg>
